<mxfile host="app.diagrams.net" modified="2024-01-13T03:11:01.429Z" agent="Mozilla/5.0 (Windows NT 10.0; Win64; x64) AppleWebKit/537.36 (KHTML, like Gecko) Chrome/120.0.0.0 Safari/537.36" etag="LSJadFOQDTsQkwqYIJox" version="22.1.18" type="device">
  <diagram name="Page-1" id="LW1JCmaHPExI12pTx2ke">
    <mxGraphModel dx="2500" dy="1736" grid="0" gridSize="10" guides="1" tooltips="1" connect="1" arrows="1" fold="1" page="0" pageScale="1" pageWidth="850" pageHeight="1100" math="0" shadow="0">
      <root>
        <mxCell id="0" />
        <mxCell id="1" parent="0" />
        <mxCell id="pZIegxjUCUhgaD2gf6bg-1" value="As&lt;br&gt;a user, I want to press start or restart" style="rounded=1;whiteSpace=wrap;html=1;fontSize=16;" vertex="1" parent="1">
          <mxGeometry x="-61" y="-129" width="154" height="78" as="geometry" />
        </mxCell>
        <mxCell id="pZIegxjUCUhgaD2gf6bg-2" value="&lt;p class=&quot;MsoNormal&quot;&gt;As&lt;br/&gt;a user, I want to view minutes spent playing.&amp;nbsp;&lt;/p&gt;" style="rounded=1;whiteSpace=wrap;html=1;fontSize=16;" vertex="1" parent="1">
          <mxGeometry x="-56.5" y="-33" width="145" height="93" as="geometry" />
        </mxCell>
        <mxCell id="pZIegxjUCUhgaD2gf6bg-3" value="&lt;p class=&quot;MsoNormal&quot;&gt;As&lt;br/&gt;a user, I want to view score and total&lt;/p&gt;" style="rounded=1;whiteSpace=wrap;html=1;fontSize=16;" vertex="1" parent="1">
          <mxGeometry x="-53.5" y="69" width="142" height="95" as="geometry" />
        </mxCell>
        <mxCell id="pZIegxjUCUhgaD2gf6bg-4" value="&lt;p class=&quot;MsoNormal&quot;&gt;As&lt;br/&gt;a user, I want to add name to the leaderboard&lt;/p&gt;" style="rounded=1;whiteSpace=wrap;html=1;fontSize=16;" vertex="1" parent="1">
          <mxGeometry x="-59.5" y="183" width="151" height="88" as="geometry" />
        </mxCell>
        <mxCell id="pZIegxjUCUhgaD2gf6bg-5" value="&lt;p class=&quot;MsoNormal&quot;&gt;As&lt;br/&gt;a user, I want to customize features&lt;/p&gt;" style="rounded=1;whiteSpace=wrap;html=1;fontSize=16;" vertex="1" parent="1">
          <mxGeometry x="-60" y="290" width="153" height="84" as="geometry" />
        </mxCell>
        <mxCell id="pZIegxjUCUhgaD2gf6bg-6" value="&lt;p class=&quot;MsoNormal&quot;&gt;As&lt;br/&gt;a user, I want to be able to view settings&lt;/p&gt;" style="rounded=1;whiteSpace=wrap;html=1;fontSize=16;" vertex="1" parent="1">
          <mxGeometry x="-65.5" y="393" width="154" height="85" as="geometry" />
        </mxCell>
        <mxCell id="pZIegxjUCUhgaD2gf6bg-7" value="&lt;p class=&quot;MsoNormal&quot;&gt;As&lt;br/&gt;a user, I want to play different levels&lt;/p&gt;" style="rounded=1;whiteSpace=wrap;html=1;fontSize=16;" vertex="1" parent="1">
          <mxGeometry x="-72" y="521" width="167" height="87" as="geometry" />
        </mxCell>
        <mxCell id="pZIegxjUCUhgaD2gf6bg-9" value="Player&lt;br&gt;" style="shape=umlActor;verticalLabelPosition=bottom;verticalAlign=top;html=1;outlineConnect=0;fontSize=16;" vertex="1" parent="1">
          <mxGeometry x="137" y="180" width="30" height="60" as="geometry" />
        </mxCell>
        <mxCell id="pZIegxjUCUhgaD2gf6bg-12" value="Player&lt;br&gt;" style="shape=umlActor;verticalLabelPosition=bottom;verticalAlign=top;html=1;outlineConnect=0;fontSize=16;" vertex="1" parent="1">
          <mxGeometry x="137" y="298" width="30" height="60" as="geometry" />
        </mxCell>
        <mxCell id="pZIegxjUCUhgaD2gf6bg-41" style="edgeStyle=none;curved=1;rounded=0;orthogonalLoop=1;jettySize=auto;html=1;exitX=1;exitY=0.3333333333333333;exitDx=0;exitDy=0;exitPerimeter=0;entryX=0;entryY=0.5;entryDx=0;entryDy=0;fontSize=12;startSize=8;endSize=8;" edge="1" parent="1" source="pZIegxjUCUhgaD2gf6bg-13" target="pZIegxjUCUhgaD2gf6bg-40">
          <mxGeometry relative="1" as="geometry" />
        </mxCell>
        <mxCell id="pZIegxjUCUhgaD2gf6bg-13" value="Player&lt;br&gt;" style="shape=umlActor;verticalLabelPosition=bottom;verticalAlign=top;html=1;outlineConnect=0;fontSize=16;" vertex="1" parent="1">
          <mxGeometry x="126" y="405.5" width="30" height="60" as="geometry" />
        </mxCell>
        <mxCell id="pZIegxjUCUhgaD2gf6bg-43" style="edgeStyle=none;curved=1;rounded=0;orthogonalLoop=1;jettySize=auto;html=1;exitX=1;exitY=0.3333333333333333;exitDx=0;exitDy=0;exitPerimeter=0;entryX=0;entryY=0.5;entryDx=0;entryDy=0;fontSize=12;startSize=8;endSize=8;" edge="1" parent="1" source="pZIegxjUCUhgaD2gf6bg-14" target="pZIegxjUCUhgaD2gf6bg-42">
          <mxGeometry relative="1" as="geometry" />
        </mxCell>
        <mxCell id="pZIegxjUCUhgaD2gf6bg-14" value="Player&lt;br&gt;" style="shape=umlActor;verticalLabelPosition=bottom;verticalAlign=top;html=1;outlineConnect=0;fontSize=16;" vertex="1" parent="1">
          <mxGeometry x="122" y="537" width="30" height="60" as="geometry" />
        </mxCell>
        <mxCell id="pZIegxjUCUhgaD2gf6bg-17" value="Player&lt;br&gt;" style="shape=umlActor;verticalLabelPosition=bottom;verticalAlign=top;html=1;outlineConnect=0;fontSize=16;" vertex="1" parent="1">
          <mxGeometry x="126" y="78" width="30" height="60" as="geometry" />
        </mxCell>
        <mxCell id="pZIegxjUCUhgaD2gf6bg-18" value="Player&lt;br&gt;" style="shape=umlActor;verticalLabelPosition=bottom;verticalAlign=top;html=1;outlineConnect=0;fontSize=16;" vertex="1" parent="1">
          <mxGeometry x="137" y="-33" width="30" height="60" as="geometry" />
        </mxCell>
        <mxCell id="pZIegxjUCUhgaD2gf6bg-21" style="edgeStyle=none;curved=1;rounded=0;orthogonalLoop=1;jettySize=auto;html=1;exitX=1;exitY=0.3333333333333333;exitDx=0;exitDy=0;exitPerimeter=0;fontSize=12;startSize=8;endSize=8;" edge="1" parent="1" source="pZIegxjUCUhgaD2gf6bg-19" target="pZIegxjUCUhgaD2gf6bg-20">
          <mxGeometry relative="1" as="geometry" />
        </mxCell>
        <mxCell id="pZIegxjUCUhgaD2gf6bg-19" value="Player&lt;br&gt;" style="shape=umlActor;verticalLabelPosition=bottom;verticalAlign=top;html=1;outlineConnect=0;fontSize=16;" vertex="1" parent="1">
          <mxGeometry x="134" y="-118" width="30" height="60" as="geometry" />
        </mxCell>
        <mxCell id="pZIegxjUCUhgaD2gf6bg-20" value="Start Button" style="ellipse;whiteSpace=wrap;html=1;fontSize=16;" vertex="1" parent="1">
          <mxGeometry x="284" y="-138" width="120" height="80" as="geometry" />
        </mxCell>
        <mxCell id="pZIegxjUCUhgaD2gf6bg-23" value="Restart Button at end" style="ellipse;whiteSpace=wrap;html=1;fontSize=16;" vertex="1" parent="1">
          <mxGeometry x="463" y="-138" width="120" height="80" as="geometry" />
        </mxCell>
        <mxCell id="pZIegxjUCUhgaD2gf6bg-24" value="" style="endArrow=classic;html=1;rounded=0;fontSize=12;startSize=8;endSize=8;curved=1;entryX=1;entryY=0.5;entryDx=0;entryDy=0;exitX=0;exitY=0.5;exitDx=0;exitDy=0;" edge="1" parent="1" source="pZIegxjUCUhgaD2gf6bg-23" target="pZIegxjUCUhgaD2gf6bg-20">
          <mxGeometry width="50" height="50" relative="1" as="geometry">
            <mxPoint x="397" y="345" as="sourcePoint" />
            <mxPoint x="447" y="295" as="targetPoint" />
          </mxGeometry>
        </mxCell>
        <mxCell id="pZIegxjUCUhgaD2gf6bg-25" value="" style="endArrow=classic;html=1;rounded=0;fontSize=12;startSize=8;endSize=8;curved=1;exitX=1;exitY=0.3333333333333333;exitDx=0;exitDy=0;exitPerimeter=0;" edge="1" parent="1" source="pZIegxjUCUhgaD2gf6bg-18" target="pZIegxjUCUhgaD2gf6bg-26">
          <mxGeometry width="50" height="50" relative="1" as="geometry">
            <mxPoint x="397" y="345" as="sourcePoint" />
            <mxPoint x="262" y="-13" as="targetPoint" />
          </mxGeometry>
        </mxCell>
        <mxCell id="pZIegxjUCUhgaD2gf6bg-26" value="Open Leaderboard" style="ellipse;whiteSpace=wrap;html=1;fontSize=16;" vertex="1" parent="1">
          <mxGeometry x="276" y="-51" width="120" height="80" as="geometry" />
        </mxCell>
        <mxCell id="pZIegxjUCUhgaD2gf6bg-27" value="View stats" style="ellipse;whiteSpace=wrap;html=1;fontSize=16;" vertex="1" parent="1">
          <mxGeometry x="463" y="-51" width="120" height="80" as="geometry" />
        </mxCell>
        <mxCell id="pZIegxjUCUhgaD2gf6bg-28" value="" style="endArrow=classic;html=1;rounded=0;fontSize=12;startSize=8;endSize=8;curved=1;exitX=1;exitY=0.5;exitDx=0;exitDy=0;entryX=0;entryY=0.5;entryDx=0;entryDy=0;" edge="1" parent="1" source="pZIegxjUCUhgaD2gf6bg-26" target="pZIegxjUCUhgaD2gf6bg-27">
          <mxGeometry width="50" height="50" relative="1" as="geometry">
            <mxPoint x="397" y="345" as="sourcePoint" />
            <mxPoint x="447" y="295" as="targetPoint" />
          </mxGeometry>
        </mxCell>
        <mxCell id="pZIegxjUCUhgaD2gf6bg-29" value="" style="endArrow=classic;html=1;rounded=0;fontSize=12;startSize=8;endSize=8;curved=1;exitX=1;exitY=0.3333333333333333;exitDx=0;exitDy=0;exitPerimeter=0;" edge="1" parent="1" source="pZIegxjUCUhgaD2gf6bg-17" target="pZIegxjUCUhgaD2gf6bg-30">
          <mxGeometry width="50" height="50" relative="1" as="geometry">
            <mxPoint x="397" y="345" as="sourcePoint" />
            <mxPoint x="252" y="98" as="targetPoint" />
          </mxGeometry>
        </mxCell>
        <mxCell id="pZIegxjUCUhgaD2gf6bg-30" value="View on bottom of game page" style="ellipse;whiteSpace=wrap;html=1;fontSize=16;" vertex="1" parent="1">
          <mxGeometry x="272" y="58" width="120" height="80" as="geometry" />
        </mxCell>
        <mxCell id="pZIegxjUCUhgaD2gf6bg-34" value="" style="edgeStyle=none;curved=1;rounded=0;orthogonalLoop=1;jettySize=auto;html=1;fontSize=12;startSize=8;endSize=8;" edge="1" parent="1" source="pZIegxjUCUhgaD2gf6bg-31" target="pZIegxjUCUhgaD2gf6bg-33">
          <mxGeometry relative="1" as="geometry" />
        </mxCell>
        <mxCell id="pZIegxjUCUhgaD2gf6bg-31" value="Input name and save" style="ellipse;whiteSpace=wrap;html=1;fontSize=16;" vertex="1" parent="1">
          <mxGeometry x="284" y="160" width="120" height="80" as="geometry" />
        </mxCell>
        <mxCell id="pZIegxjUCUhgaD2gf6bg-32" value="" style="endArrow=classic;html=1;rounded=0;fontSize=12;startSize=8;endSize=8;curved=1;exitX=1;exitY=0.3333333333333333;exitDx=0;exitDy=0;exitPerimeter=0;entryX=0;entryY=0.5;entryDx=0;entryDy=0;" edge="1" parent="1" source="pZIegxjUCUhgaD2gf6bg-9" target="pZIegxjUCUhgaD2gf6bg-31">
          <mxGeometry width="50" height="50" relative="1" as="geometry">
            <mxPoint x="397" y="345" as="sourcePoint" />
            <mxPoint x="447" y="295" as="targetPoint" />
          </mxGeometry>
        </mxCell>
        <mxCell id="pZIegxjUCUhgaD2gf6bg-33" value="JSON to local storage" style="ellipse;whiteSpace=wrap;html=1;fontSize=16;" vertex="1" parent="1">
          <mxGeometry x="514" y="160" width="120" height="80" as="geometry" />
        </mxCell>
        <mxCell id="pZIegxjUCUhgaD2gf6bg-38" value="Customize character, ball or club" style="ellipse;whiteSpace=wrap;html=1;fontSize=16;" vertex="1" parent="1">
          <mxGeometry x="305" y="278" width="120" height="80" as="geometry" />
        </mxCell>
        <mxCell id="pZIegxjUCUhgaD2gf6bg-40" value="Settings button" style="ellipse;whiteSpace=wrap;html=1;fontSize=16;" vertex="1" parent="1">
          <mxGeometry x="284" y="389" width="120" height="80" as="geometry" />
        </mxCell>
        <mxCell id="pZIegxjUCUhgaD2gf6bg-42" value="Load new level after previous" style="ellipse;whiteSpace=wrap;html=1;fontSize=16;" vertex="1" parent="1">
          <mxGeometry x="258" y="517" width="120" height="80" as="geometry" />
        </mxCell>
        <mxCell id="pZIegxjUCUhgaD2gf6bg-45" value="" style="endArrow=none;dashed=1;html=1;dashPattern=1 3;strokeWidth=2;rounded=0;fontSize=12;startSize=8;endSize=8;curved=1;exitX=1;exitY=0.3333333333333333;exitDx=0;exitDy=0;exitPerimeter=0;entryX=0;entryY=0.5;entryDx=0;entryDy=0;" edge="1" parent="1" source="pZIegxjUCUhgaD2gf6bg-12" target="pZIegxjUCUhgaD2gf6bg-38">
          <mxGeometry width="50" height="50" relative="1" as="geometry">
            <mxPoint x="397" y="145" as="sourcePoint" />
            <mxPoint x="447" y="95" as="targetPoint" />
          </mxGeometry>
        </mxCell>
        <mxCell id="pZIegxjUCUhgaD2gf6bg-46" value="Update details" style="ellipse;whiteSpace=wrap;html=1;fontSize=16;" vertex="1" parent="1">
          <mxGeometry x="522" y="278" width="120" height="80" as="geometry" />
        </mxCell>
        <mxCell id="pZIegxjUCUhgaD2gf6bg-47" value="" style="endArrow=none;dashed=1;html=1;dashPattern=1 3;strokeWidth=2;rounded=0;fontSize=12;startSize=8;endSize=8;curved=1;exitX=1;exitY=0.5;exitDx=0;exitDy=0;entryX=0;entryY=0.5;entryDx=0;entryDy=0;" edge="1" parent="1" source="pZIegxjUCUhgaD2gf6bg-38" target="pZIegxjUCUhgaD2gf6bg-46">
          <mxGeometry width="50" height="50" relative="1" as="geometry">
            <mxPoint x="397" y="145" as="sourcePoint" />
            <mxPoint x="447" y="95" as="targetPoint" />
          </mxGeometry>
        </mxCell>
      </root>
    </mxGraphModel>
  </diagram>
</mxfile>
